:version 1.10
:name ASF
:units
  mass 1
  length 1
  angle deg
:documentation
  ASF file generated by Kaydara
:root
  axis xyz
  order  tx ty tz rx ry rz
  position 0 0 0
  orientation 0 0 0
:bonedata
  begin
    id 1
    name abdomenDummy
    direction 1 -1.27917e-005 -1.26829e-007
    length 1.79048
    axis 0 0 0 xyz
  end
  begin
    id 2
    name abdomen
    direction 0.987238 0.159249 -9.68575e-008
    length 8.61378
    axis 2.73208e-005 5.54953e-006 9.16328 xyz
    dof rx ry rz
  end
  begin
    id 3
    name chest
    direction 0 0 0
    length 0
    axis 2.65071e-005 8.63688e-006 2.59796 xyz
    dof rx ry rz
  end
  begin
    id 4
    name neckDummyDummy
    direction 0.998972 0.0453274 -1.50742e-007
    length 9.56202
    axis 2.65071e-005 8.63688e-006 2.59796 xyz
  end
  begin
    id 5
    name neckDummy
    direction 0.99977 0.0214525 -1.61748e-007
    length 1.93574
    axis 2.62932e-005 9.26758e-006 1.22924 xyz
    dof rx ry rz
  end
  begin
    id 6
    name neck
    direction 0.99928 -0.0379406 -1.88707e-007
    length 3.70367
    axis 2.56966e-005 1.08122e-005 -2.17436 xyz
    dof rx ry rz
  end
  begin
    id 7
    name head
    direction 0.992648 -0.121037 -2.25408e-007
    length 6.35158
    axis 2.47068e-005 1.29149e-005 -6.95196 xyz
    dof rx ry rz
  end
  begin
    id 8
    name figureHair
    direction -0.86681 -0.498639 -7.83376e-008
    length 8.29884
    axis -2.7515e-005 4.48842e-006 -150.09 xyz
    dof rx ry rz
  end
  begin
    id 9
    name lCollarDummy
    direction 0.994611 0.0451299 -0.0933417
    length 9.60395
    axis 2.65071e-005 8.63688e-006 2.59796 xyz
  end
  begin
    id 10
    name lCollar
    direction 0.0384146 0.00127577 -0.999261
    length 6.95318
    axis 90.4899 87.7973 1.90202 xyz
    dof rx ry rz
  end
  begin
    id 11
    name lShldr
    direction -0.030648 0.0920515 -0.995282
    length 9.61158
    axis -161.793 84.4324 108.415 xyz
    dof rx ry rz
  end
  begin
    id 12
    name lForeArm
    direction 0.000163956 -0.0977586 -0.99521
    length 8.6068
    axis 0.134773 84.3899 -89.8525 xyz
    dof rx ry rz
  end
  begin
    id 13
    name lHand
    direction -0.0190533 -0.1444 -0.989336
    length 7.61479
    axis -7.3729 81.6249 -97.517 xyz
    dof rx ry rz
  end
  begin
    id 14
    name rCollarDummy
    direction 0.994871 0.0442627 0.0909555
    length 9.60761
    axis 2.65071e-005 8.63688e-006 2.59796 xyz
  end
  begin
    id 15
    name rCollar
    direction 0.0334251 -4.74072e-007 0.999441
    length 6.97058
    axis -178.152 -88.0845 -0.000674207 xyz
    dof rx ry rz
  end
  begin
    id 16
    name rShldr
    direction -0.026922 0.0719509 0.997045
    length 9.60913
    axis 71.2822 -85.594 110.514 xyz
    dof rx ry rz
  end
  begin
    id 17
    name rForeArm
    direction 0.00134679 -0.118986 0.992895
    length 8.57176
    axis -88.7923 -83.1659 -89.3516 xyz
    dof rx ry rz
  end
  begin
    id 18
    name rHand
    direction -0.0185183 -0.0768601 0.99687
    length 7.69687
    axis -74.5596 -85.4655 -103.546 xyz
    dof rx ry rz
  end
  begin
    id 19
    name lThighDummy
    direction -0.236086 -0.0385456 -0.970967
    length 4.99155
    axis 0 0 0 xyz
  end
  begin
    id 20
    name lThigh
    direction -0.993968 0.0148998 -0.108653
    length 13.572
    axis -91.4001 6.23768 179.141 xyz
    dof rx ry rz
  end
  begin
    id 21
    name lShin
    direction -0.992341 0.0904576 -0.0841193
    length 18.5862
    axis -91.4558 4.82538 174.792 xyz
    dof rx ry rz
  end
  begin
    id 22
    name lFoot
    direction 0.0209381 -0.999771 -0.00453005
    length 8.44474
    axis 4.86759 0.259522 -88.8001 xyz
    dof rx ry rz
  end
  begin
    id 23
    name rThighDummy
    direction -0.236086 -0.0385456 0.970967
    length 4.99155
    axis 0 0 0 xyz
  end
  begin
    id 24
    name rThigh
    direction -0.993968 0.0148995 0.108653
    length 13.5721
    axis -89.7059 -6.2377 179.141 xyz
    dof rx ry rz
  end
  begin
    id 25
    name rShin
    direction -0.9925 0.0899962 0.0827255
    length 18.6716
    axis -89.2745 -4.74775 174.819 xyz
    dof rx ry rz
  end
  begin
    id 26
    name rFoot
    direction 0.0301721 -0.999545 9.70865e-005
    length 8.45013
    axis -2.50066e-005 -0.00555246 -88.271 xyz
    dof rx ry rz
  end
:hierarchy
  begin
    root abdomenDummy lThighDummy rThighDummy
    abdomenDummy abdomen
    abdomen chest
    chest neckDummyDummy lCollarDummy rCollarDummy
    neckDummyDummy neckDummy
    neckDummy neck
    neck head
    head figureHair
    lCollarDummy lCollar
    lCollar lShldr
    lShldr lForeArm
    lForeArm lHand
    rCollarDummy rCollar
    rCollar rShldr
    rShldr rForeArm
    rForeArm rHand
    lThighDummy lThigh
    lThigh lShin
    lShin lFoot
    rThighDummy rThigh
    rThigh rShin
    rShin rFoot
  end

:SAMPLES-PER-SECOND 25
:FULLY-SPECIFIED
:DEGREES
467
root  5.5337 36.0688 -2.95811 -170.86 2.61366 99.5592
abdomen  -2.58102 -18.5857 0.567495
chest  -0.3677 5.65738 -9.87246
neckDummy  9.09964e-021 0 8.72668e-016
neck  -3.93507 11.5344 -14.9319
head  -4.6593 -9.76662 -18.1566
figureHair  0 1.51661e-021 -9.5315e-016
lCollar  -5.15695e-016 -6.42944e-016 -7.59357e-014
lShldr  6.77784 19.119 -73.4029
lForeArm  42.3184 -76.9093 7.67029
lHand  0.254698 0.195082 5.2986
rCollar  1.7976e-016 -5.12864e-014 1.62755e-015
rShldr  -17.6361 67.1978 -6.25352
rForeArm  10.7368 1.0712 25.887
rHand  0.772316 -15.716 -0.600641
lThigh  -6.53975 -16.1271 0.0636125
lShin  14.9347 -4.07446 -8.23865
lFoot  -36.1998 1.70451 -7.50702
rThigh  20.9144 -29.6423 -7.8705
rShin  6.27878 31.0596 -0.659112
rFoot  -4.13925 1.27767 6.36754
468
root  5.59754 36.1242 -3.05283 -171.169 2.53812 99.4341
abdomen  -2.44704 -18.3603 0.247342
chest  -0.253946 6.09191 -10.0368
neckDummy  9.09964e-021 0 8.72668e-016
neck  -3.67196 11.1452 -14.8474
head  -4.39379 -9.26506 -18.1953
figureHair  0 1.51661e-021 -9.5315e-016
lCollar  -5.15695e-016 -6.42944e-016 -7.59357e-014
lShldr  6.82992 19.3112 -73.1418
lForeArm  42.7679 -76.602 7.44387
lHand  0.254698 0.195082 5.2986
rCollar  1.7976e-016 -5.12864e-014 1.62755e-015
rShldr  -17.8591 67.4198 -6.70582
rForeArm  10.3743 1.0725 25.7201
rHand  0.757252 -15.4388 -0.591769
lThigh  -6.45725 -16.1087 0.0411593
lShin  14.5676 -4.0958 -7.97856
lFoot  -34.4357 1.55906 -7.71044
rThigh  19.8736 -29.3267 -7.19248
rShin  6.89265 30.2048 -0.355804
rFoot  -4.49126 1.2984 6.02927
469
root  5.671 36.2151 -3.20403 -171.054 2.40538 99.3336
abdomen  -2.38442 -17.9316 -0.113279
chest  -0.253301 6.25162 -9.94764
neckDummy  9.09964e-021 0 8.72668e-016
neck  -3.37425 10.836 -15.1735
head  -4.04555 -8.94187 -18.336
figureHair  0 1.51661e-021 -9.5315e-016
lCollar  -5.15695e-016 -6.42944e-016 -7.59357e-014
lShldr  6.75418 19.7152 -72.9599
lForeArm  43.2544 -76.5826 7.43753
lHand  0.254698 0.195082 5.2986
rCollar  1.7976e-016 -5.12864e-014 1.62755e-015
rShldr  -18.5318 67.5706 -7.32401
rForeArm  10.5281 1.0741 25.5258
rHand  0.791355 -15.3892 -0.829303
lThigh  -6.38101 -16.2746 -0.053797
lShin  14.4989 -4.01043 -7.63499
lFoot  -31.4364 1.29933 -8.17546
rThigh  18.929 -28.4814 -6.56968
rShin  7.86108 28.6472 0.34903
rFoot  -4.79833 1.29645 5.59153
470
root  5.75607 36.3414 -3.38999 -170.409 2.42056 99.2509
abdomen  -2.35706 -16.8043 -0.429308
chest  -0.424392 5.84436 -9.90159
neckDummy  9.09964e-021 0 8.72668e-016
neck  -3.09642 10.6602 -15.6653
head  -3.68768 -8.93409 -18.5555
figureHair  0 1.51661e-021 -9.5315e-016
lCollar  -5.15695e-016 -6.42944e-016 -7.59357e-014
lShldr  6.42708 19.905 -72.9668
lForeArm  43.6391 -76.5742 7.43289
lHand  0.254698 0.195082 5.2986
rCollar  1.7976e-016 -5.12864e-014 1.62755e-015
rShldr  -18.9888 67.6631 -7.5916
rForeArm  10.6102 1.07712 25.2074
rHand  0.795464 -15.5511 -0.802725
lThigh  -5.71829 -17.0921 -0.756657
lShin  14.9357 -3.1509 -6.9131
lFoot  -26.7911 0.906744 -8.90057
rThigh  18.1009 -27.1327 -6.44649
rShin  9.41675 26.5689 1.55391
rFoot  -4.98175 1.25541 5.03195
471
root  5.83663 36.4733 -3.56843 -169.764 2.61325 99.0562
abdomen  -2.23433 -15.449 -0.841733
chest  -0.535886 5.52661 -10.0621
neckDummy  9.09964e-021 0 8.72668e-016
neck  -2.91949 10.2787 -16.1204
head  -3.41643 -8.90189 -18.6684
figureHair  0 1.51661e-021 -9.5315e-016
lCollar  -5.15695e-016 -6.42944e-016 -7.59357e-014
lShldr  6.07713 19.6672 -72.9765
lForeArm  43.7998 -76.4894 7.37282
lHand  0.254698 0.195082 5.2986
rCollar  1.7976e-016 -5.12864e-014 1.62755e-015
rShldr  -19.0825 67.8366 -7.29004
rForeArm  10.414 1.083 24.637
rHand  0.775442 -15.5227 -0.682624
lThigh  -4.87664 -18.1416 -1.65468
lShin  13.9858 -1.49581 -6.25748
lFoot  -22.6254 0.680945 -9.1422
rThigh  16.99 -25.6079 -6.59996
rShin  11.2375 24.4471 2.98202
rFoot  -5.0122 1.17163 4.34826
472
root  5.90584 36.628 -3.73371 -169.492 2.88899 98.7716
abdomen  -2.01425 -14.0961 -1.33355
chest  -0.482171 5.46848 -10.2717
neckDummy  9.09964e-021 0 8.72668e-016
neck  -2.71829 9.88261 -16.5852
head  -3.13936 -8.91055 -18.5144
figureHair  0 1.51661e-021 -9.5315e-016
lCollar  -5.15695e-016 -6.42944e-016 -7.59357e-014
lShldr  5.95599 19.3505 -72.853
lForeArm  43.7337 -76.5796 7.43953
lHand  0.254698 0.195082 5.2986
rCollar  1.7976e-016 -5.12864e-014 1.62755e-015
rShldr  -19.242 68.0363 -6.74446
rForeArm  10.57 1.0893 24.0179
rHand  0.78606 -15.5194 -0.752288
lThigh  -4.73546 -18.6317 -2.07141
lShin  9.61395 0.377552 -6.18507
lFoot  -19.6059 1.02724 -8.11901
rThigh  15.7121 -23.8999 -6.6243
rShin  12.6577 22.0034 4.17681
rFoot  -4.9844 1.05223 3.45895
